<svg width="13" height="13" viewBox="0 0 13 13" xmlns="http://www.w3.org/2000/svg"><title>©️1</title><g fill="none" fill-rule="evenodd"><circle fill="#B2B2B2" cx="6.5" cy="6.5" r="6.5"/><path d="M6.5 11.329a4.829 4.829 0 1 0 0-9.658 4.829 4.829 0 0 0 0 9.658z" fill="#FFF"/><path d="M5.072 6.547c0-.854.729-1.545 1.629-1.545.646 0 1.205.357 1.468.875l1.21-.513c-.381-.884-1.272-1.65-2.678-1.65-1.65 0-2.987 1.268-2.987 2.833 0 1.563 1.337 2.832 2.987 2.832 1.425 0 2.13-.605 2.678-1.611l-1.185-.604a1.634 1.634 0 0 1-1.493.927c-.9 0-1.63-.691-1.63-1.544z" stroke="#B2B2B2" stroke-width=".3" fill="#B2B2B2"/></g></svg>